<?xml version="1.0" encoding="utf-8"?>
<!-- Generator: Adobe Illustrator 17.0.0, SVG Export Plug-In . SVG Version: 6.00 Build 0)  -->
<!DOCTYPE svg PUBLIC "-//W3C//DTD SVG 1.1//EN" "http://www.w3.org/Graphics/SVG/1.1/DTD/svg11.dtd">
<svg version="1.1" id="Calque_1" xmlns="http://www.w3.org/2000/svg" xmlns:xlink="http://www.w3.org/1999/xlink" x="0px" y="0px"
	 width="50.922px" height="53.132px" viewBox="0 0 50.922 53.132" enable-background="new 0 0 50.922 53.132" xml:space="preserve">
<path fill-rule="evenodd" clip-rule="evenodd" fill="#96D1B0" d="M17.499,0c5.775,7.969,9.854,21.346,18.314,25.593
	c3.45-1.386,2.996-4.761,6.351-5.109c4.356,2.424,3.72,8.613,4.921,13.206c1.228,4.688,4.514,9.413,3.711,13.968
	c-5.797,1.834-12.265,2.219-18.307,3.07c-5.909,0.83-12.1,3.911-17.607,1.5c-0.764-3.858,6.37-5.911,6.995-9.449
	C15.57,38.664,10.172,30.55,4.133,25.26c-2.517-3.913-5.549-7.942-3.406-10.79c2.965-1.396,5.213,0.35,8.073-0.57
	C12.345,9.721,10.587,1.165,17.499,0z M12.137,17.419c-2.344,1.69-3.921,0.041-6.254,1.679c5.32,11.513,14.813,17.755,22.602,23.463
	c1.883,1.924-1.2,2.719,0.013,4.489c5.578-0.237,11.208-0.711,17.25-2.961c-0.314-4.905-2.494-10.235-4.072-15.428
	c-2.084-0.223-2.863,2.157-4.834,3.036C29.149,29.083,23.799,16.23,17.266,8.584C13.201,10.986,15.306,14.804,12.137,17.419z"/>
</svg>
